<svg xmlns="http://www.w3.org/2000/svg" width="512" height="512"><path fill="#FFAE00" d="M253 0h4l.772 1.863C274.249 50.598 274.249 50.598 303 90c15.826 0 29.284-13.584 40.625-23.152 2.093-1.629 4-2.713 6.375-3.848-.645 6.838-1.815 13.425-3.258 20.137l-1.386 6.57-.733 3.45c-9.32 43.853-9.32 43.853-16.06 88.156l-.256 2.085c-1.117 9.281-2.204 18.354-.307 27.602 11.542 0 20.049-10.775 27.625-18.312 5.797-5.844 11.348-11.724 16.41-18.22 2.208-2.773 4.561-5.363 6.965-7.968 4.897-5.323 9.461-10.872 14-16.5 1.658-2.007 3.328-4.004 5-6l2 1a79 79 0 0 1 1.25 5.375c3.195 13.415 11.207 25.363 22.965 32.664 8.35 2.881 16.367-.019 24.473-2.539l3.554-1.074a373 373 0 0 0 26.042-9.074l2.56-.98 2.224-.878C485 168 485 168 488 169l-.99 3.152C473.945 208.43 473.945 208.43 467.75 246l-.078 3.063c.385 3.45 1.204 5.202 3.328 7.937 2.178 1.546 2.178 1.546 4.688 2.625l2.66 1.238A171 171 0 0 0 489 265c0 3 0 3-2.133 5.313q-1.483 1.357-2.992 2.687l-1.627 1.463c-4.505 3.997-9.199 7.727-13.961 11.41-5.708 4.418-11.201 9.063-16.683 13.756-2.134 1.824-4.28 3.635-6.426 5.445A2349 2349 0 0 0 430 318a2360 2360 0 0 1-13.562 11.563l-1.607 1.358q-4.086 3.454-8.183 6.895c-20.306 14.971-20.306 14.971-30.984 36.016.078 6.65 2.512 12.652 4.711 18.856l1.25 3.626q1.15 3.339 2.322 6.67A580 580 0 0 1 387 412c-10.38-.515-20.516-2.31-30.742-4.069q-4.704-.807-9.412-1.6-13.37-2.262-26.735-4.55a7162 7162 0 0 0-16.42-2.785q-3.111-.527-6.222-1.063-4.354-.75-8.712-1.48l-2.554-.449c-10.276-2.006-10.276-2.006-19.765.746-6.577 10.294-2.004 30.399-1.125 42.125q.203 2.795.403 5.591.527 7.285 1.065 14.57.861 11.694 1.706 23.393.296 4.058.598 8.115l.364 4.999.17 2.245.153 2.13.134 1.815c.142 3.42.094 6.844.094 10.267h-25c-.09-9.7.187-19.295.74-28.974q.208-3.633.404-7.265.565-10.314 1.147-20.626.356-6.355.7-12.712.196-3.521.4-7.042a574 574 0 0 0 .851-23.63l.066-2.384c.033-4.86-.586-8.17-3.308-12.367-6.175-4.117-14.447-1.594-21.376-.348l-3.053.532q-4.964.87-9.926 1.753-3.463.607-6.925 1.211-9.096 1.591-18.188 3.196-14.57 2.569-29.142 5.117-5.088.892-10.172 1.795l-6.23 1.092-2.855.51-2.637.459-2.279.402c-2.426.307-4.774.328-7.217.281l.902-2.675q1.662-4.933 3.316-9.868.715-2.132 1.434-4.262 1.035-3.071 2.063-6.144l1.254-3.73c1.872-6.029 3.663-11.991.75-17.934-5.742-9.435-13.13-16.047-21.664-22.903-3.405-2.769-6.733-5.617-10.055-8.484a686 686 0 0 0-15.23-12.73 715 715 0 0 1-9.145-7.645l-1.65-1.399q-4.106-3.483-8.198-6.984A514 514 0 0 0 51.53 293.35c-7.003-5.465-13.847-11.126-20.67-16.813a213 213 0 0 0-3.657-2.955c-4.098-3.266-4.098-3.266-5.203-6.581l1.906-.734A471 471 0 0 0 32 263l2.305-.945c4.747-2.132 7.47-4.14 9.695-9.055.573-5.832-.194-11.498-1.437-17.187l-.515-2.396c-3.446-15.242-8.356-30.252-13.224-45.093l-1-3.065a521 521 0 0 0-1.88-5.61l-.827-2.5-.73-2.151c-.447-2.308-.112-3.784.613-5.998l1.898.715c12.06 4.515 24.157 8.794 36.54 12.347l3.06.905c6.947 1.936 14.195 3.643 21.166 1.037 12.204-8.97 20.82-21.092 23.145-36.309L111 146h3a94 94 0 0 1 5.438 6.125l3.246 3.879 1.671 2.016c25.02 33.934 25.02 33.934 58.645 53.98 3.607-10.821.685-24.972-1-36-.11-.737-.218-1.474-.33-2.233-3.563-23.977-8.415-47.723-13.666-71.38l-.77-3.473a3053 3053 0 0 0-3.817-16.955l-1.39-6.17-.667-2.873-.59-2.636-.526-2.297C160 66 160 66 161 63l2.973 2.492c18.481 16.197 18.481 16.197 40.777 25.07 4.074-.705 5.739-2.47 8.25-5.562 2-2.93 3.76-5.973 5.5-9.062l1.571-2.782C233.04 49.756 242.882 24.722 253 0m2 175q-.596 22.758-1.173 45.516-.269 10.574-.545 21.147C252.09 286.325 252.09 286.325 252 331l-2.781-1.323c-17.769-8.444-35.564-16.816-53.498-24.904q-11.728-5.294-23.385-10.746l-5.429-2.531a2079 2079 0 0 1-7.978-3.738 1775 1775 0 0 0-7.363-3.445l-2.236-1.065c-1.75-.81-3.537-1.538-5.33-2.248l-2 1c12.728 7.47 25.489 14.872 38.354 22.104 6.881 3.877 13.71 7.837 20.521 11.834 9.402 5.514 18.874 10.888 28.402 16.18a372 372 0 0 1 5.779 3.282c2.962 1.678 2.962 1.678 6.318 2.987 3.486 1.574 5.943 2.875 8.626 5.613 1.476 5.552 1.144 10.754.75 16.438q-.09 2.264-.164 4.529A350 350 0 0 1 250 376h12l-1-32 5-2a129 129 0 0 0 4.895-2.95l2.857-1.796 3.06-1.942 6.52-4.105c1.11-.7 2.219-1.4 3.362-2.123 5.092-3.21 10.2-6.397 15.306-9.584l6-3.75 15.003-9.377 5.968-3.73q7.741-4.84 15.486-9.674l3.225-2.014 6.039-3.77A2298 2298 0 0 0 373 275l-2-1c-2.055.739-2.055.739-4.34 1.957l-2.728 1.377-2.87 1.478-2.67 1.35a852 852 0 0 0-13.501 7.015c-13.23 7.017-26.605 13.722-40.016 20.385q-6.475 3.217-12.945 6.442l-3.119 1.554a739 739 0 0 0-20.77 10.787c-2.662 1.434-5.165 2.696-8.041 3.655l.01-2.38c.064-19.346-.13-38.669-.596-58.01l-.14-5.958q-.218-9.26-.446-18.523c-.156-6.346-.301-12.692-.443-19.038q-.208-9.25-.439-18.5-.094-3.906-.179-7.813-.121-5.411-.265-10.822l-.063-3.248-.085-2.962-.061-2.574c-.17-2.464-.17-2.464-2.293-5.172"/></svg>