<?xml version="1.0" encoding="UTF-8"?>
<svg version="1.1" xmlns="http://www.w3.org/2000/svg" width="512" height="512">
<path d="M0 0 C1.32 0 2.64 0 4 0 C4.25467041 0.61480225 4.50934082 1.22960449 4.77172852 1.86303711 C21.24918942 50.59750026 21.24918942 50.59750026 50 90 C65.82620984 90 79.28440884 76.41628004 90.625 66.84765625 C92.71836516 65.21910079 94.62503642 64.13455868 97 63 C96.35482104 69.8384581 95.18468302 76.42481763 93.7421875 83.13671875 C93.27990295 85.32647073 92.81775005 87.5162505 92.35571289 89.70605469 C92.11386261 90.84506226 91.87201233 91.98406982 91.62283325 93.15759277 C82.30282043 137.00999194 82.30282043 137.00999194 75.5625 181.3125 C75.47823761 182.00081909 75.39397522 182.68913818 75.30715942 183.39831543 C74.19029644 192.67903214 73.10289591 201.75161757 75 211 C86.54243277 211 95.0486239 200.22506795 102.625 192.6875 C108.42222812 186.84373257 113.97339485 180.96384186 119.03515625 174.46875 C121.24273909 171.69500774 123.59613063 169.10510653 126 166.5 C130.89661131 161.17693421 135.46149131 155.6284655 140 150 C141.65839866 147.99287264 143.32789773 145.99573497 145 144 C145.66 144.33 146.32 144.66 147 145 C147.48650841 146.77397579 147.88835704 148.57142163 148.25 150.375 C151.44483767 163.79013928 159.45713096 175.73839007 171.21484375 183.0390625 C179.56483627 185.91998558 187.58222736 183.02013166 195.6875 180.5 C196.86054688 180.14558838 198.03359375 179.79117676 199.2421875 179.42602539 C208.04348549 176.72319435 216.70650935 173.69738305 225.28393555 170.3515625 C226.12867432 170.02800781 226.97341309 169.70445312 227.84375 169.37109375 C228.57787109 169.08161865 229.31199219 168.79214355 230.06835938 168.49389648 C232 168 232 168 235 169 C234.50971313 170.56004761 234.50971313 170.56004761 234.00952148 172.15161133 C220.94510401 208.43104051 220.94510401 208.43104051 214.75 246 C214.72421875 247.010625 214.6984375 248.02125 214.671875 249.0625 C215.05736732 252.51357414 215.87611884 254.26462778 218 257 C220.17757692 258.54615693 220.17757692 258.54615693 222.6875 259.625 C223.56535156 260.03363281 224.44320313 260.44226563 225.34765625 260.86328125 C228.8625859 262.36967967 232.39252403 263.7307029 236 265 C236 268 236 268 233.8671875 270.3125 C232.87878117 271.21824209 231.8805865 272.11337065 230.875 273 C230.3380249 273.48275391 229.8010498 273.96550781 229.24780273 274.46289062 C224.74335537 278.45993153 220.04930357 282.19039141 215.28686523 285.87304688 C209.57930404 290.29059115 204.08585417 294.93608246 198.60449219 299.62939453 C196.46964293 301.45304696 194.32387337 303.26358948 192.17797852 305.07421875 C187.09912655 309.36019569 182.0422837 313.67107614 177 318 C172.49236439 321.8699154 167.97423475 325.7267288 163.4375 329.5625 C162.90729248 330.01093262 162.37708496 330.45936523 161.83081055 330.92138672 C159.10677561 333.22382014 156.37935974 335.52214627 153.6484375 337.81640625 C133.34177069 352.78698395 133.34177069 352.78698395 122.6640625 373.83203125 C122.74213382 380.48289982 125.17575942 386.48442727 127.375 392.6875 C127.7875 393.88439453 128.2 395.08128906 128.625 396.31445312 C129.39268965 398.53951489 130.16594422 400.76267082 130.94677734 402.9831543 C131.99294511 405.97979201 133.00314571 408.98664064 134 412 C123.62038879 411.48450608 113.48420587 409.68916681 103.25808334 407.93113518 C100.1215785 407.39236208 96.98396749 406.86051188 93.84597778 406.33045959 C84.9326154 404.82363655 76.02132839 403.30472355 67.11083984 401.78100586 C61.63871151 400.84574491 56.16527037 399.9185074 50.69098282 398.99597359 C48.61655866 398.64467103 46.54265951 398.29025272 44.46932602 397.9325695 C41.56654091 397.43185589 38.66219357 396.94133601 35.75732422 396.45288086 C34.49302582 396.2308197 34.49302582 396.2308197 33.20318604 396.00427246 C22.92689657 393.99830208 22.92689657 393.99830208 13.4375 396.75 C6.86053605 407.04437836 11.43365038 427.14887866 12.3125 438.875 C12.44760401 440.73864601 12.58211376 442.60233519 12.71606445 444.46606445 C13.06632446 449.32277053 13.42288051 454.17899056 13.78137207 459.03509521 C14.3563372 466.83243777 14.92340775 474.63034924 15.48690796 482.42852783 C15.68361303 485.13403801 15.8841945 487.83924036 16.08520508 490.54443359 C16.20667452 492.21060239 16.32801903 493.87678031 16.44921875 495.54296875 C16.50532318 496.2838826 16.56142761 497.02479645 16.61923218 497.78816223 C16.6697171 498.49124008 16.72020203 499.19431793 16.7722168 499.91870117 C16.81646286 500.51736496 16.86070892 501.11602875 16.90629578 501.73283386 C17.04763172 505.15244557 17 508.57746876 17 512 C8.75 512 0.5 512 -8 512 C-8.08964218 502.30063592 -7.81302383 492.70482751 -7.25921631 483.02562904 C-7.12090774 480.60413428 -6.98782424 478.18239747 -6.85595703 475.76054382 C-6.48059345 468.88497577 -6.09542749 462.00996276 -5.70898438 455.13500977 C-5.471177 450.89802756 -5.23857411 446.66078193 -5.00872803 442.42336082 C-4.87979746 440.0756391 -4.74495386 437.72830956 -4.60986328 435.38093567 C-4.17091062 427.50885475 -3.87218312 419.63443388 -3.7578125 411.75073242 C-3.73596893 410.96425229 -3.71412537 410.17777216 -3.69161987 409.3674593 C-3.65856981 404.50657663 -4.27778414 401.19650936 -7 397 C-13.17517641 392.88321573 -21.44708422 395.40623389 -28.37573242 396.65234375 C-29.38324051 396.82790802 -30.3907486 397.00347229 -31.42878723 397.18435669 C-34.73879117 397.76259198 -38.04706986 398.35015764 -41.35546875 398.9375 C-43.66363812 399.34177474 -45.97193388 399.74532845 -48.28034973 400.14819336 C-54.34401092 401.20784265 -60.40635387 402.2748327 -66.46832275 403.34411621 C-76.18100106 405.056965 -85.89495607 406.76245155 -95.61019325 408.46072388 C-99.00156402 409.05524162 -102.39193823 409.65521792 -105.78227234 410.25561523 C-107.85896081 410.61984452 -109.93568517 410.98386927 -112.01245117 411.34765625 C-112.95438324 411.51596954 -113.89631531 411.68428284 -114.86679077 411.85769653 C-115.73717484 412.00915131 -116.6075589 412.16060608 -117.50431824 412.31665039 C-118.25625049 412.44938858 -119.00818274 412.58212677 -119.78290081 412.71888733 C-122.20894529 413.0264928 -124.55708827 413.04701858 -127 413 C-126.70230713 412.11739502 -126.40461426 411.23479004 -126.09790039 410.32543945 C-124.99031706 407.03686212 -123.88548139 403.74738788 -122.7824707 400.45727539 C-122.30537208 399.03601009 -121.82719496 397.61510634 -121.34790039 396.19458008 C-120.65744762 394.14759911 -119.97093924 392.09933071 -119.28515625 390.05078125 C-118.87144775 388.82012939 -118.45773926 387.58947754 -118.03149414 386.3215332 C-116.15917162 380.29243309 -114.36753292 374.3296356 -117.28125 368.38671875 C-123.02299812 358.95198263 -130.410828 352.34033208 -138.9453125 345.484375 C-142.35018065 342.71519835 -145.67801794 339.8674854 -149 337 C-154.01551906 332.67782065 -159.09176865 328.44519531 -164.23046875 324.26953125 C-167.3042103 321.7507106 -170.343717 319.19460914 -173.375 316.625 C-173.91979004 316.16343506 -174.46458008 315.70187012 -175.02587891 315.22631836 C-177.76344256 312.90442895 -180.49580371 310.57664538 -183.22265625 308.2421875 C-189.20134171 303.13565892 -195.26444478 298.17690169 -201.47045898 293.34912109 C-208.47347946 287.88434194 -215.31749025 282.22321563 -222.140625 276.53613281 C-223.34871559 275.53806217 -224.5670487 274.55221643 -225.796875 273.58105469 C-229.89511281 270.31466158 -229.89511281 270.31466158 -231 267 C-230.3709375 266.75765625 -229.741875 266.5153125 -229.09375 266.265625 C-226.38385664 265.20452218 -223.6897503 264.11115041 -221 263 C-220.23945313 262.68804687 -219.47890625 262.37609375 -218.6953125 262.0546875 C-213.94843909 259.92307265 -211.2254525 257.91454094 -209 253 C-208.42677116 247.16826673 -209.19445767 241.50203106 -210.4375 235.8125 C-210.60725342 235.02206299 -210.77700684 234.23162598 -210.9519043 233.41723633 C-214.39810539 218.17514026 -219.30787048 203.16475626 -224.17578125 188.32421875 C-224.50602295 187.31270752 -224.83626465 186.30119629 -225.17651367 185.2590332 C-225.79262513 183.38564204 -226.41855147 181.51544004 -227.0559082 179.64916992 C-227.32878662 178.82392822 -227.60166504 177.99868652 -227.8828125 177.1484375 C-228.12402832 176.43864746 -228.36524414 175.72885742 -228.61376953 174.99755859 C-229.0600077 172.68964412 -228.72476358 171.21403784 -228 169 C-227.37359619 169.235979 -226.74719238 169.47195801 -226.10180664 169.71508789 C-214.04110635 174.22978269 -201.94465242 178.50854585 -189.5625 182.0625 C-188.5526001 182.36099854 -187.5427002 182.65949707 -186.50219727 182.96704102 C-179.55510965 184.90298202 -172.30662618 186.61024879 -165.3359375 184.00390625 C-153.1317378 175.03309014 -144.51545034 162.91168537 -142.19140625 147.6953125 C-142.12824219 147.13585937 -142.06507813 146.57640625 -142 146 C-141.01 146 -140.02 146 -139 146 C-137.0633965 147.99418639 -135.31518752 149.977845 -133.5625 152.125 C-132.48060812 153.41808537 -131.39857292 154.71105084 -130.31640625 156.00390625 C-129.48906982 157.00188232 -129.48906982 157.00188232 -128.64501953 158.02001953 C-103.62557972 191.95405069 -103.62557972 191.95405069 -70 212 C-66.39289515 201.17868545 -69.31492168 187.02828423 -71 176 C-71.10914734 175.26323029 -71.21829468 174.52646057 -71.33074951 173.7673645 C-74.89260965 149.79032827 -79.7446288 126.04439925 -84.99609375 102.38671875 C-85.25028076 101.24059616 -85.50446777 100.09447357 -85.76635742 98.91362 C-87.02343574 93.25849021 -88.29327123 87.60662381 -89.58251953 81.95874023 C-90.04594782 79.90219212 -90.50932909 77.8456334 -90.97265625 75.7890625 C-91.19304062 74.8410527 -91.41342499 73.89304291 -91.64048767 72.91630554 C-91.83526199 72.04625381 -92.03003632 71.17620209 -92.23071289 70.27978516 C-92.40421768 69.52186676 -92.57772247 68.76394836 -92.75648499 67.98306274 C-93 66 -93 66 -92 63 C-91.01902344 63.82242188 -90.03804687 64.64484375 -89.02734375 65.4921875 C-70.54580653 81.68882373 -70.54580653 81.68882373 -48.25 90.5625 C-44.17596832 89.85737913 -42.5114449 88.09259435 -40 85 C-38.00071919 82.06972522 -36.24078337 79.02700367 -34.5 75.9375 C-33.98155518 75.01976807 -33.46311035 74.10203613 -32.92895508 73.15649414 C-19.96029125 49.75689422 -10.11803173 24.7221814 0 0 Z M2 175 C1.60331615 190.17182502 1.21198064 205.34378201 0.82654572 220.5158968 C0.64735361 227.56494304 0.46656497 234.61394086 0.28173828 241.6628418 C-0.90898072 286.32488713 -0.90898072 286.32488713 -1 331 C-1.91773193 330.56357178 -2.83546387 330.12714355 -3.78100586 329.67749023 C-21.54972565 321.23309692 -39.34510892 312.86101487 -57.27929688 304.77319336 C-65.09929036 301.24363609 -72.89211566 297.66162226 -80.6640625 294.02734375 C-82.47350521 293.18341327 -84.28299389 292.33958133 -86.0925293 291.49584961 C-88.75422386 290.25462437 -91.41454105 289.01082511 -94.07095337 287.7583313 C-96.52200064 286.60280967 -98.97728367 285.45678151 -101.43359375 284.3125 C-102.54047043 283.78564857 -102.54047043 283.78564857 -103.66970825 283.24815369 C-105.41968488 282.43818515 -107.20722595 281.71023125 -109 281 C-109.99 281.495 -109.99 281.495 -111 282 C-98.27181868 289.47055828 -85.51103485 296.87237866 -72.64575195 304.10449219 C-65.7648659 307.98094886 -58.93676118 311.94100749 -52.125 315.9375 C-42.72349126 321.45152034 -33.25099019 326.82624662 -23.72314453 332.11889648 C-21.78726145 333.1953741 -19.86068819 334.28878404 -17.94433594 335.3996582 C-14.98234099 337.07794719 -14.98234099 337.07794719 -11.62597656 338.38745117 C-8.13958466 339.96084864 -5.68285453 341.26245695 -3 344 C-1.52401863 349.55171999 -1.85557614 354.75370328 -2.25 360.4375 C-2.31025903 361.94705351 -2.36500069 363.45683797 -2.4140625 364.96679688 C-2.54568508 368.64936449 -2.75227612 372.32320589 -3 376 C0.96 376 4.92 376 9 376 C8.67 365.44 8.34 354.88 8 344 C9.65 343.34 11.3 342.68 13 342 C14.65373495 341.05479139 16.28444414 340.06856221 17.89453125 339.05078125 C18.83748047 338.4578125 19.78042969 337.86484375 20.75195312 337.25390625 C21.76193359 336.61324219 22.77191406 335.97257813 23.8125 335.3125 C25.98560963 333.9439033 28.15878862 332.57541674 30.33203125 331.20703125 C31.44143066 330.50658691 32.55083008 329.80614258 33.69384766 329.08447266 C38.78607756 325.87390856 43.89327462 322.68743617 49 319.5 C51.00008242 318.25013188 53.00008217 317.00013146 55 315.75 C67 308.25 67 308.25 70.00317383 306.37304688 C71.99263102 305.12961587 73.9820519 303.88612679 75.97143555 302.64257812 C81.13243638 299.41658236 86.29416388 296.19175787 91.45703125 292.96875 C92.52115234 292.30423828 93.58527344 291.63972656 94.68164062 290.95507812 C96.69442393 289.69818724 98.70742659 288.44164755 100.72070312 287.18554688 C107.16920157 283.15804784 113.59179861 279.09130044 120 275 C119.34 274.67 118.68 274.34 118 274 C115.94508103 274.73902795 115.94508103 274.73902795 113.66015625 275.95703125 C112.75974609 276.41142578 111.85933594 276.86582031 110.93164062 277.33398438 C109.98482422 277.82189453 109.03800781 278.30980469 108.0625 278.8125 C106.74088867 279.48055664 106.74088867 279.48055664 105.39257812 280.16210938 C100.87024173 282.4596206 96.37117309 284.79914348 91.890625 287.17700195 C78.66090194 294.19415305 65.28587504 300.89920349 51.875 307.5625 C47.55865548 309.70715351 43.24328319 311.85372879 38.9296875 314.00390625 C37.90059265 314.51684235 36.8714978 315.02977844 35.81121826 315.55825806 C28.83153126 319.05034461 21.90716994 322.63398478 15.04147339 326.34535217 C12.37894023 327.7791962 9.87633119 329.04122294 7 330 C7.00306845 329.21483128 7.00613689 328.42966255 7.00929832 327.62070084 C7.07419985 308.27443643 6.88018605 288.95121854 6.4140625 269.609375 C6.36741937 267.62367755 6.32077752 265.63798006 6.27424181 263.65228009 C6.12928426 257.47789094 5.97993374 251.30361865 5.828125 245.12939453 C5.67222401 238.78343776 5.52657962 232.43729605 5.38517535 226.09100127 C5.24722296 219.92430849 5.09873872 213.75791123 4.94630051 207.59156036 C4.88335461 204.98724008 4.82358198 202.38284108 4.76704788 199.77837372 C4.68788616 196.17064526 4.59671548 192.56341537 4.50244141 188.95605469 C4.48157974 187.88410355 4.46071808 186.8121524 4.43922424 185.7077179 C4.41123245 184.73028122 4.38324066 183.75284454 4.35440063 182.74578857 C4.33412119 181.89652172 4.31384174 181.04725487 4.29294777 180.17225266 C4.12232967 177.70843005 4.12232967 177.70843005 2 175 Z " fill="#FFAE00" transform="translate(253,0)"/>
<path d="" fill="#FFAE00" transform="translate(0,0)"/>
</svg>
