<svg version="1.1" xmlns="http://www.w3.org/2000/svg" xmlns:xlink="http://www.w3.org/1999/xlink" width="800px" height="800px" viewBox="0,0,256,256"><g fill="none" fill-rule="nonzero" stroke="#ffffff" stroke-width="2" stroke-linecap="none" stroke-linejoin="round" stroke-miterlimit="10" stroke-dasharray="" stroke-dashoffset="0" font-family="none" font-weight="none" font-size="none" text-anchor="none" style="mix-blend-mode: normal"><g transform="translate(0,10.66667) scale(10.66667,10.66667)"><path d="M4,14c0,-1.0506 0.20693,-2.0909 0.60896,-3.0615c0.40204,-0.97057 0.99132,-1.85249 1.73419,-2.59536c0.74287,-0.74286 1.62478,-1.33214 2.59538,-1.73418c0.97061,-0.40203 2.01087,-0.60896 3.06147,-0.60896c1.0506,0 2.0909,0.20693 3.0615,0.60897c0.9706,0.40203 1.8525,0.99131 2.5954,1.73418c0.7428,0.74287 1.3321,1.62478 1.7341,2.59535c0.4021,0.9706 0.609,2.0109 0.609,3.0615" stroke-linecap="butt"></path><path d="M10,15c0,-0.2626 0.0517,-0.5227 0.1522,-0.7654c0.1006,-0.2426 0.2479,-0.4631 0.4336,-0.6488c0.1857,-0.1857 0.4062,-0.333 0.6488,-0.4336c0.2427,-0.1005 0.5028,-0.1522 0.7654,-0.1522c0.2626,0 0.5227,0.0517 0.7654,0.1522c0.2426,0.1006 0.4631,0.2479 0.6488,0.4336c0.1857,0.1857 0.3331,0.4062 0.4336,0.6488c0.1005,0.2427 0.1522,0.5028 0.1522,0.7654" stroke-linecap="butt"></path><path d="M13,13l2,-3" stroke-linecap="round"></path><path d="M20,14v1c0,0.5523 -0.4477,1 -1,1h-14c-0.55228,0 -1,-0.4477 -1,-1v-1" stroke-linecap="round"></path></g></g></svg>